<svg width="69" height="69" viewBox="0 0 69 69" fill="none" xmlns="http://www.w3.org/2000/svg">
<path d="M46 11.5H54.625C56.15 11.5 57.6125 12.1058 58.6909 13.1841C59.7692 14.2625 60.375 15.725 60.375 17.25V20.125M46 57.5H54.625C56.15 57.5 57.6125 56.8942 58.6909 55.8159C59.7692 54.7375 60.375 53.275 60.375 51.75V48.875M25.8779 34.5H25.875M46 34.5H60.375M60.375 34.5L54.625 28.75M60.375 34.5L54.625 40.25M12.7219 55.8555L29.9719 61.0305C30.8306 61.2883 31.7377 61.3417 32.6207 61.1864C33.5037 61.0311 34.3382 60.6716 35.0575 60.1363C35.7768 59.6011 36.361 58.9051 36.7633 58.104C37.1657 57.3028 37.3752 56.4186 37.375 55.522V13.478C37.3752 12.5814 37.1657 11.6973 36.7633 10.8961C36.361 10.0949 35.7768 9.39887 35.0575 8.86367C34.3382 8.32846 33.5037 7.96887 32.6207 7.81361C31.7377 7.65836 30.8306 7.71175 29.9719 7.96951L12.7219 13.1445C11.5374 13.5 10.4992 14.228 9.76117 15.2203C9.02316 16.2126 8.62473 17.4164 8.625 18.653V50.347C8.62473 51.5837 9.02316 52.7874 9.76117 53.7797C10.4992 54.772 11.5374 55.5 12.7219 55.8555Z" stroke="black" stroke-width="2" stroke-linecap="round" stroke-linejoin="round"/>
</svg>
